<svg width="1492" height="24" viewBox="0 0 1492 24" fill="none" xmlns="http://www.w3.org/2000/svg">
<g clip-path="url(#clip0)">
<rect width="1492" height="24" transform="translate(1492 24) rotate(-180)" fill="black"/>
<path d="M3.00024 7.10623C5.19702 7.33521 7.08069 6.95648 9.00623 6.48209C11.4346 5.88403 13.7091 5.01738 16.5874 5.41544C18.5138 5.67921 18.4353 6.55262 20.6802 6.11881C21.8894 5.88403 22.6619 4.73816 23.9805 4.41063C27.6149 3.49761 25.6085 4.64831 28.1083 4.90917C30.4738 5.15554 32.0302 3.95557 34.5176 3.78456C37.8862 3.55075 37.277 4.6029 39.3596 5.31689C41.4235 6.02316 43.2139 5.50336 45.2615 5.14009C47.5585 4.73043 48.3262 4.75362 50.624 4.87826C55.7194 5.15555 60.7982 5.33332 65.6636 6.28209C68.0282 6.74972 69.9001 7.44825 72.2601 7.79897C74.7841 8.17867 76.2333 8.40959 78.4634 9.28493C80.7208 10.1757 80.954 10.3294 84.0631 10.2946C86.866 10.2627 89.149 9.96994 91.2292 11.0617C94.4231 12.739 92.9187 12.767 97.5671 12.0887C99.0972 11.8675 103.387 11.4636 104.77 12.0308C107.603 13.1921 105.443 14.0559 109.538 14.3505C111.833 14.5129 114.995 13.9051 117.155 14.2713C119.15 14.6104 119.113 16.1051 121.625 16.0693C123.441 16.0404 124.682 14.1167 126.424 13.6897C129.206 13.0076 131.301 13.6626 133.591 14.3312C137.138 15.3689 137.353 15.0858 141.089 14.5129C144.519 13.9902 145.246 14.3438 146.764 15.9466C148.334 17.6017 147.266 17.706 151.268 17.3814C152.495 17.2809 152.582 16.879 154.234 16.9147C154.603 17.3167 155.197 17.5485 156.029 17.6046C163.914 18.6306 174.424 17.0152 181.734 15.4452C186.438 14.4327 190.973 13.5167 195.934 12.8849C199.545 12.4221 204.115 12.8926 207.507 12.2385C210.257 11.709 211.258 10.7902 214.674 11.0907C218.327 11.4095 216.528 11.0955 217.641 12.7206C218.227 13.5766 217.428 14.4278 219.455 14.995C221.504 15.5718 223.363 14.5708 225.146 14.1138C232.321 12.2791 228.205 16.3486 232.544 16.8539C234.656 17.1002 240.929 14.1409 240.419 17.4249C242.354 17.7205 243.929 17.5601 245.832 17.3833C246.181 16.9766 246.772 16.737 247.604 16.6674C248.662 16.7978 249.608 17.05 250.44 17.4287C253.905 17.8799 257.851 16.0346 260.979 16.8954C261.629 17.0751 262.506 17.9495 263.053 18.2509C266.24 17.5215 267.985 16.8606 271.688 16.7756C274.685 16.708 280.317 14.7264 282.602 16.6162C284.747 16.1563 289.072 15.1196 291.348 15.7408C294.37 16.565 292.169 19.2316 294.209 20.7417C296.998 22.8035 300.207 21.7369 303.695 20.9736C305.878 20.4982 308.088 20.4412 310.352 20.7697C312.469 21.077 314.549 21.762 316.744 21.8644C318.314 21.9398 319.588 21.5388 320.591 22.3871C321.168 22.8673 321.104 23.2016 322.292 23.1146C322.979 23.0644 323.374 22.79 324.117 22.9977C324.587 23.1339 324.626 23.3977 325.195 23.4963C325.725 23.5871 326.695 23.4914 327.217 23.4219C328.404 23.2634 329.459 22.7687 330.735 23.0006C332.177 23.2624 331.9 24.2759 333.728 24.0412C334.95 23.8818 336.16 23.0798 337.625 23.5378C338.097 23.6837 338.128 23.9339 338.704 24.0354C339.166 24.1127 340.243 24.0605 340.702 23.9813C342.037 23.7561 343.165 22.7774 344.76 22.9243C345.929 23.0354 346.778 23.8402 347.857 23.5668C348.937 23.2972 349.241 22.6093 349.835 22.133C350.286 21.7697 350.881 21.4818 351.762 21.5823C352.443 21.6586 352.402 22.0431 353.249 21.8296C354.197 21.591 354.221 20.4992 355.639 20.8412C356.116 20.9581 356.098 21.305 356.712 21.3562C357.377 21.4142 358.04 21.0374 358.376 20.7987C358.885 20.4422 359.285 19.8229 360.217 19.6973C361.041 19.5862 361.545 20.0635 362.269 20.019C362.94 19.9755 363.411 19.2297 363.746 18.9688C364.615 18.2915 366.73 18.0857 367.258 17.306C367.518 16.9254 367.296 16.2143 368.235 15.9834C368.922 15.8123 369.59 16.2143 370.36 16.2297C371.551 16.2539 371.849 16.0365 372.749 15.68C373.349 15.4423 373.878 15.0452 374.642 15.1882C375.034 15.2645 375.545 15.7244 375.881 15.88C376.745 16.2877 378.018 16.4742 379.182 16.5254C379.578 17.3582 378.609 18.6384 379.354 19.3939C379.61 19.6509 380.33 19.7997 380.644 20.0393C381.198 20.4528 380.727 20.933 381.895 20.6026C382.418 20.4538 382.942 19.9649 383.26 19.7166C383.842 19.2683 384.169 19.2828 384.9 18.9881C385.736 18.65 386.207 18.0345 386.761 17.5717C387.358 17.0693 388.084 16.7157 388.807 16.2771C389.614 15.7872 390.25 15.3128 391.276 14.938C392.308 14.5583 393.457 14.2887 394.425 13.8578C395.663 13.308 397.054 13.1109 398.599 13.2626C399.234 13.6742 399.424 13.9061 400.377 13.9476C400.751 13.9631 401.302 13.9322 401.678 13.9003C402.147 13.8578 402.312 13.8607 402.743 13.7322C404.077 13.3361 404.91 12.4742 405.858 11.8665C405.162 12.5757 405.047 14.4027 407.304 14.0752C407.707 14.0191 407.848 13.767 408.274 13.767C408.764 13.767 408.777 14.053 409.261 14.0858C409.587 14.1196 409.889 14.0945 410.166 14.0018C411.156 13.8906 411.896 13.1419 412.789 13.0201C413.658 12.9032 413.887 13.2655 414.78 13.2665C415.579 13.2713 416.27 13.0134 416.92 12.794C417.793 12.4994 417.515 12.3148 418.297 12.7129C418.858 13.0018 418.609 13.3274 419.66 13.2095C420.365 13.1293 420.793 12.3825 421.671 12.4771C422.421 13.5583 423.961 12.6134 425.285 12.6974C426.533 12.7796 427.434 13.1844 428.801 12.9351C429.397 12.825 429.686 12.5226 430.264 12.4356C430.738 12.3689 431.307 12.5081 431.794 12.4617C433.288 12.3255 434.672 11.6578 436.331 11.9003C436.969 11.9921 437.005 12.2211 437.785 12.2008C438.179 12.1931 438.973 12.0028 439.323 11.91C440.249 11.6598 441.185 11.1699 442.286 11.0839C443.356 11.0008 444.032 11.6211 444.852 11.6124C445.387 11.6037 445.254 11.4182 445.776 11.3603C447.029 11.2144 448.396 11.3487 448.415 12.1535C449.021 12.0569 449.544 11.5709 450.316 11.6086C451.35 11.6607 451.139 12.2578 452.294 12.2066C453.302 12.1622 453.692 11.6559 454.804 11.6375C455.595 11.624 456.087 11.6627 456.819 11.452C457.534 11.2491 457.758 10.8095 458.408 10.6221C459.204 10.3902 459.411 10.7622 459.919 10.7815C461.395 10.8395 461.514 10.0917 462.673 9.68783C463.975 9.23276 463.26 9.85304 464.31 9.99603C464.821 10.0646 465.126 9.7284 465.436 9.55643C466.375 9.02504 467.242 8.29172 468.302 7.85404C470.133 7.0985 473.027 8.5091 473.421 9.48686C473.599 9.9313 473.463 10.3709 473.693 10.8221C474.055 11.539 474.4 12.2047 474.503 12.9506L479.488 12.9757C480.651 12.5815 482.03 12.0443 482.671 11.8462C483.619 11.5535 486.179 10.5236 487.323 10.5023C490.202 10.4492 491.512 11.8105 494.603 11.6588C500.318 11.3767 502.437 8.31297 508.382 8.45113C511.654 8.52553 510.186 9.75256 514.291 8.56417C515.22 8.29558 515.905 7.97095 516.513 7.62313C518.08 7.82313 519.562 8.00573 520.729 8.06273C524.539 8.24534 527.641 7.79801 530.038 6.96421C530.401 7.50236 530.647 7.91395 532.666 8.28978C534.594 8.65016 537.562 8.15645 539.416 7.9381C541.684 7.67144 541.432 6.73522 544.79 6.90623C551.303 7.24053 556.048 9.71584 562.959 8.41152C565.508 7.92651 567.708 6.89561 570.277 6.4589C574.105 5.81254 573.755 6.96807 576.648 7.72748C579.749 8.54292 580.574 6.87822 582.805 6.3961C585.514 5.8077 589.728 6.15842 593.009 6.24441C594.786 6.43088 596.58 6.54006 598.377 6.58547C598.664 6.65793 598.966 6.73812 599.315 6.84537C600.508 7.20381 600.272 7.75356 601.866 7.9323C604.201 8.1893 604.463 7.27338 606.331 7.02411C608.165 6.77967 610.355 7.21251 612.077 7.26661C612.385 7.72941 612.981 7.89269 613.872 7.75453C614.874 7.53328 615.778 7.2299 616.587 6.8444C617.775 6.52943 619.25 6.43668 620.632 6.27726C622.209 6.81348 623.917 7.19705 625.755 7.52265C630.547 8.37287 635.858 7.81153 640.354 6.61542C641.15 6.55745 642.015 6.44248 643.006 6.24924C646.129 5.64056 648.247 5.30337 651.066 6.50721C652.819 7.25406 653.728 8.43278 655.962 8.86562C660.217 9.68976 666.285 6.90623 670.337 6.33813C674.564 5.74491 680.57 6.26567 684.307 7.46854C686.717 8.24534 687.36 9.23083 687.536 10.6704C687.568 10.939 687.562 14.3013 687.767 14.252C690.793 13.5264 693.366 12.9158 696.136 14.5138C698.095 15.6462 695.601 16.0326 699.442 15.7843C701.382 15.6587 702.825 14.6626 704.874 15.2297C706.431 15.6626 706.785 16.8181 708.15 17.4075C710.372 18.365 712.488 17.7601 714.755 17.1804C718.096 16.3283 720.849 15.9138 724.532 16.3882C726.204 16.6056 727.236 16.9205 728.641 16.2181C729.16 15.9563 730.984 13.0568 730.714 13.0327C732.205 13.1651 732.385 14.4027 734.278 14.0472C734.801 12.9032 735.034 10.6298 737.529 10.1487C738.009 10.0559 739.917 10.282 740.496 10.2955C743.403 10.367 743.14 9.80956 745.229 9.07624C749.089 7.72651 749.872 12.2366 751.804 12.9824C753.428 13.6095 755.182 13.0974 756.811 12.7738C759.472 12.2482 761.204 12.5718 763.934 12.71C765.387 12.7873 767.215 12.4974 768.589 12.6878C769.518 12.8182 770.369 13.567 771.287 13.567C773.157 13.5544 775.027 13.5351 776.895 13.5061C779.828 13.566 780.757 14.1602 783.493 14.3525C785.483 14.4897 787.318 14.165 789.274 14.4723C788.767 17.734 794.972 14.7969 797.114 14.4723C799.568 14.1003 801.194 14.4104 803.38 13.765C806.138 12.9477 809.941 10.1448 813.694 11.0327C816.132 11.6076 814.355 13.509 818.021 13.624C821.21 13.7235 823.554 11.7303 827.09 11.8762C829.488 11.9728 830.624 12.911 833.026 12.796C836.057 12.6578 837.193 10.5564 840.637 11.0492C842.471 11.3129 842.997 12.3177 844.661 12.5969C847.173 10.826 854.25 9.12069 854.258 12.6607C859.757 12.1583 860.49 9.8569 864.958 12.5998C866.647 12.2143 868.651 11.3139 870.502 11.0656C875.58 10.3902 874.104 12.2491 876.888 13.4076C880.689 14.9882 885.42 12.28 887.562 10.8463C892.555 7.49753 894.96 11.0975 900.372 11.2762C900.49 12.6182 900.545 13.7921 903.658 13.5863C905.623 13.4549 905.456 12.3042 907.741 12.8404C909.201 13.1824 908.922 14.1264 911.071 14.3998C912.108 14.3467 913.147 14.3129 914.186 14.2926C916.334 14.6172 915.87 15.3264 917.082 15.9689C918.864 16.9099 917.564 16.2307 920.124 16.7534C921.07 16.6288 921.967 16.6829 922.817 16.9215C924.838 17.6249 923.734 18.8751 926.35 19.3978C928.276 19.7813 931.657 19.305 933.647 19.0751C937.282 18.65 940.804 17.7138 943.658 16.4403C944.992 15.8452 954.456 10.7757 953.548 14.1815C955.172 14.1013 956.563 11.9931 956.443 11.9931C958.189 11.9979 958.861 12.5863 959.555 13.4327C963.918 12.9506 961.005 9.24725 966.339 10.1448C967.489 8.36225 966.274 5.66375 970.737 5.08888C973.915 4.67923 978.174 6.01543 981.131 6.47919C983.463 6.84537 985.725 6.99029 988.108 7.18835C990.675 7.39608 992.888 8.97769 995.579 8.28012C997.36 7.81926 997.934 6.67339 1000.06 6.46083C1002.9 6.18258 1006.23 7.4299 1008.18 8.38833C1012.26 10.3893 1014.71 12.453 1020.77 12.4578C1025.04 12.4617 1029.11 11.5303 1033.37 11.54C1035.43 11.5448 1037.4 11.7815 1039.13 12.395C1040.69 12.9419 1042.79 15.1785 1044.48 15.0761C1045.04 13.8684 1045.55 12.4279 1047.21 11.4743C1049.08 10.398 1049.32 11.0356 1051.15 11.5545C1053.35 12.1757 1054.19 11.3226 1056.34 11.3467C1058.71 11.3728 1058.32 12.7863 1060.15 12.9119C1062.26 13.0578 1062.57 11.4646 1064.5 12.3998C1065.18 12.7293 1066.19 14.1032 1066.5 14.5901C1066.96 15.3167 1066.53 16.7824 1068.7 16.7428C1069.88 16.7254 1070.55 15.3795 1071.74 15.2104C1075.1 14.7409 1074.36 17.6654 1074.67 18.7872C1074.8 19.2567 1075.29 20.7678 1076.75 20.4818C1077.85 20.2693 1077.61 19.4799 1077.97 19.0268C1079.46 17.1543 1082.12 15.5853 1083.24 13.623C1083.55 13.0791 1083.42 11.9042 1084.2 11.4849C1085.14 10.9844 1086.72 11.1052 1087.14 11.8192C1088.65 11.0492 1087.6 9.42116 1090.11 8.98252C1090.61 9.58058 1091.42 10.0588 1092.44 10.2395C1092.77 8.73519 1093.48 7.8154 1094.6 6.45987C1095.29 5.62703 1095.25 4.16329 1096.76 3.91596C1097.33 3.95074 1097.89 4.00291 1098.46 4.06378C1100.04 4.55749 1101.13 6.27726 1102.48 6.89657C1107.69 9.28976 1108.77 6.76807 1112.7 5.48018C1114.73 5.49467 1116.77 5.43283 1118.8 5.3111C1120.11 5.72462 1121.29 6.38644 1122.57 7.03667C1124.29 7.91008 1125.04 8.3835 1127.26 8.3236C1129.35 8.26949 1131.06 7.27918 1133.33 7.81926C1135.39 8.3149 1135.36 9.23083 1136.64 10.2211C1137.62 9.94676 1140.11 8.91296 1141.13 8.84823C1142.99 8.72939 1142.95 9.00088 1143.91 10.1477C1144.62 10.9873 1144.42 10.9535 1145.44 11.424C1146.28 11.8105 1147.11 12.2028 1147.96 12.6221C1149.42 13.3525 1151.08 13.652 1152.6 14.0771C1154.69 14.6655 1156.44 14.9486 1158.52 15.452C1160.57 15.9428 1162.49 17.2113 1164.51 17.8297C1166.53 18.4451 1168.55 18.3476 1170.57 18.7311C1172.73 19.1408 1174.67 20.5891 1176.76 21.3282C1178.7 22.0142 1180.31 23.8238 1182.39 23.7919C1183.13 23.7813 1183.97 23.9368 1184.7 23.817C1185.49 23.6856 1185.81 23.2306 1186.38 23.0528C1187.11 22.8296 1187.8 22.9542 1188.53 22.6586C1189.21 22.3774 1189.65 21.389 1190.2 21.133C1191.63 20.4809 1193.23 21.4229 1194.66 20.992C1195.35 20.7842 1195.42 20.1524 1196.11 19.9437C1196.8 19.734 1197.73 20.0586 1198.44 20.0142C1200.33 19.8954 1201.83 19.0239 1203.83 19.0451C1207 19.0799 1209.28 18.4761 1212.2 17.1379C1213.92 16.3466 1215.05 15.1573 1216.62 14.0037C1217.77 13.1515 1219.12 12.7071 1220.44 12.1554C1221.65 11.6501 1223.06 11.1342 1224.43 10.7004C1225.24 10.4434 1226 10.7612 1226.76 10.5409C1227.45 10.3419 1227.52 9.69266 1228.2 9.48493C1229.1 9.20764 1230.17 9.58638 1231.14 9.32261C1234.03 8.53519 1235.9 6.52363 1238.91 7.36033C1239.91 7.63762 1240.97 8.16128 1242 8.19027C1243.4 8.23085 1244.43 7.24439 1245.75 7.03087C1247.01 6.82894 1248.87 7.01638 1250.08 7.20478C1249.58 10.5013 1254.66 7.41444 1256.38 7.18739C1257.2 7.07725 1258.08 7.00961 1258.89 7.2386C1259.43 7.38835 1260.2 8.18351 1260.67 8.21925C1261.68 8.29848 1263.66 7.18063 1264.73 6.71107C1267.34 5.57003 1268.21 1.73049 1271.02 0.93437C1273.96 0.10347 1277.96 0.982679 1281 0.982679C1284.31 0.982679 1287.62 0.992342 1290.94 0.982679C1291.85 0.979782 1293.16 0.669641 1294.03 0.93437C1294.73 1.14113 1294.79 1.78073 1295.48 1.98169C1296.22 2.19811 1297.07 1.72566 1297.82 1.88508C1298.67 2.06672 1299.26 2.75269 1300.11 2.93143C1301.15 3.15172 1302.11 2.74979 1303.17 3.09472C1304.08 3.39036 1304.47 3.78939 1305.46 3.85605C1306.95 3.95653 1308.56 3.9517 1310.01 3.62224C1310.68 3.14882 1311.4 2.88409 1312.17 2.82999C1312.75 2.85607 1313.34 2.89086 1313.93 2.9353C1314.6 2.72854 1314.68 2.0928 1315.36 1.88508C1316.68 1.48122 1318.61 1.93339 1319.99 1.93339C1323.07 1.93339 1326.5 1.4532 1329.18 2.85607C1330.52 3.55654 1331.64 4.61836 1332.96 5.49757C1334.12 6.2676 1335.14 7.62603 1336.39 8.15355C1337.66 8.69267 1338.75 8.52746 1340.01 9.4231C1341.92 10.7796 1343.79 12.1728 1346.05 12.0839C1349.01 11.966 1351.87 10.6385 1354.84 10.5284C1357.71 10.424 1359.99 9.54193 1362.75 8.88204C1364.3 8.50814 1365.9 8.98252 1367.42 8.63181C1368.96 8.28109 1370.66 7.44149 1372.18 6.89368C1372.95 6.61349 1374.3 6.02799 1375.04 5.92268C1376.36 5.73524 1375.74 6.09466 1376.72 6.45504C1378.22 7.00285 1379.99 8.04824 1381.31 8.37287C1385.03 9.2917 1388.7 9.56899 1392.61 9.53517C1395.2 9.51295 1397.47 10.9216 1399.84 12.0704C1402.04 13.1399 1403.74 12.9622 1406.09 12.852C1411.76 12.5834 1417.34 14.9032 1422.99 13.2742C1429.82 11.3042 1435.39 13.2308 1442.3 12.4366C1448.14 11.7631 1451.81 8.20863 1457.47 11.5158C1461.89 14.0955 1462.06 17.479 1468.16 15.9882C1470.22 15.4848 1470.21 15.9099 1471.95 16.3689C1473.6 16.7988 1474.32 16.5911 1475.99 16.3379C1478.61 15.936 1480.17 17.3669 1482.67 17.3263C1485.66 17.277 1485.28 15.795 1486.72 14.8017C1487.99 16.7273 1489.68 17.8683 1492 18.4558V8.96454e-05L0 8.96454e-05V6.5246C0.888184 6.71204 1.75305 6.9787 3.00024 7.10623Z" fill="white"/>
</g>
<defs>
<clipPath id="clip0">
<rect width="1492" height="24" fill="white" transform="translate(1492 24) rotate(-180)"/>
</clipPath>
</defs>
</svg>
